<svg id="Drawing" xmlns="http://www.w3.org/2000/svg" viewBox="0 0 1000 800"><defs><style>.cls-1{fill:#063535;}.cls-2{fill:#3f736b;}.cls-3{fill:#81c5b7;}.cls-4{fill:#426d70;}.cls-5{fill:#29585c;}.cls-6{fill:#3e706f;}.cls-7{fill:#40b9c1;}.cls-8{fill:#298189;}.cls-9{fill:#074f51;}.cls-10{fill:#0e6c64;}.cls-11{fill:#af6665;}.cls-12{fill:#9a5e54;}.cls-13{fill:#8c4f4f;}.cls-14{fill:#7a4b42;}.cls-15{fill:#9e6456;}.cls-16{fill:#e8e8e8;}.cls-17{fill:#7ba496;stroke:#6a8a7f;}.cls-17,.cls-26,.cls-27{stroke-miterlimit:10;}.cls-18{fill:#eda55d;}.cls-19{fill:#774e3d;}.cls-20{fill:#533d2f;}.cls-21{fill:#ce8644;}.cls-22{fill:#d3d3ce;}.cls-23{fill:#745338;}.cls-24{fill:#f48581;}.cls-25{fill:#3b594d;}.cls-26{fill:#375359;}.cls-26,.cls-27{stroke:#fff;}.cls-27{fill:none;}.cls-28{fill:#99d4d2;}.cls-29{fill:#fee7be;}.cls-30{fill:#9b8675;}.cls-31{fill:#726354;}.cls-32{fill:#9b866e;}.cls-33{fill:#978672;}.cls-34{fill:#64655f;}.cls-35{fill:#574341;}.cls-36{fill:#4c463d;}.cls-37{fill:#fff;}.cls-38{fill:#ac2e35;}.cls-39{fill:#71893a;}.cls-40{fill:#8cc340;}.cls-41{fill:#80ab40;}.cls-42{fill:#4e4e30;}.cls-43{fill:#2d739c;}.cls-44{fill:#59a3cc;}.cls-45{fill:#52483e;}.cls-46{fill:#534842;}.cls-47{fill:#736258;}.cls-48{fill:#36479d;}.cls-49{fill:#89857e;}.cls-50{fill:#8e5b45;}.cls-51{fill:#c2c1c0;}.cls-52{fill:#704343;}.cls-53{fill:#5d6f6f;}</style></defs><title>For Hewy</title><g id="CN_Tower" data-name="CN Tower"><path class="cls-1" d="M868,295.2s-1.51-.5-1.44-5.55c0,0,1.73-10-6.7-10.45H845.77V260.6s-.29-4.18-4-4.69V210.13s3.25-3.31,3.1-9.8c0,0,0-6.34-6.05-7V164.79a5,5,0,0,0-5-5.19V136.31h-2.74V94.65h-8.7v41.66h-2.74V159.6a5,5,0,0,0-5,5.19v28.55c-6,.65-6,7-6,7-.15,6.49,3.1,9.8,3.1,9.8v45.78c-3.75.51-4,4.69-4,4.69v18.6H793.6c-8.43.43-6.7,10.45-6.7,10.45.07,5.05-1.45,5.55-1.45,5.55-15.13,6.34-12.83,14-12.83,14a16.78,16.78,0,0,1,.66,4.47s-1,7.75,1.75,11.95a9.48,9.48,0,0,1,.51,8.73c-5.17,19.72,30.39,23.6,30.39,23.6,2.58,18.1-12.29,316.75-12.29,316.75h66.14S844.91,376,847.5,357.94c0,0,35.55-3.88,30.38-23.6a9.5,9.5,0,0,1,.52-8.73c2.71-4.2,1.74-11.95,1.74-11.95a17.36,17.36,0,0,1,.66-4.47S883.11,301.54,868,295.2Z"/></g><g id="Background_buildings" data-name="Background buildings"><rect class="cls-2" x="253.34" y="508.54" width="79.26" height="220.49"/><polygon class="cls-3" points="323.06 477.55 390.39 491.85 458.93 440.01 458.93 411.4 323.06 468.61 323.06 477.55"/><polygon class="cls-4" points="323.06 468.61 323.06 729.02 390.39 729.02 390.39 475.17 323.06 468.61"/><polygon class="cls-5" points="458.93 726.64 458.93 411.4 390.39 475.17 390.39 729.02 458.93 729.02 458.93 726.64"/><rect class="cls-6" x="495.87" y="364.92" width="95.94" height="337.29"/><rect class="cls-6" x="745.56" y="460.86" width="96.54" height="227.64"/><polygon class="cls-7" points="581.09 296.99 754.5 341.68 754.5 373.26 666.3 373.26 581.09 305.93 581.09 296.99"/><polygon class="cls-8" points="666.3 624.74 666.3 341.68 581.09 296.99 581.09 652.15 666.3 652.15 666.3 624.74"/><polygon class="cls-9" points="666.3 652.15 754.5 652.15 754.5 355.33 754.5 341.68 666.3 341.68 666.3 361.27 666.3 652.15"/><rect class="cls-8" x="838.54" y="384.18" width="95.94" height="337.29"/><rect class="cls-8" x="182.68" y="474.57" width="79.26" height="254.45"/></g><g id="Background"><path class="cls-10" d="M-46.67,794.34s80.39-3.78,235.46-102c0,0,79.48-50.94,237.6-8.19a192.54,192.54,0,0,0,86.4,3.24c20.48-3.92,43.3-10.83,63.13-22.93a182.06,182.06,0,0,1,49.45-21.24c74.9-19.23,255-37.93,431.83,151.08Z"/></g><g id="Building_4" data-name="Building 4"><rect class="cls-11" x="758.55" y="659.15" width="93" height="128.95"/><rect class="cls-12" x="758.55" y="622.68" width="93" height="49.76"/><rect class="cls-13" x="810.13" y="608.87" width="12.24" height="32.82"/><rect class="cls-14" x="845.29" y="615.65" width="6.25" height="56.79"/><rect class="cls-14" x="758.55" y="666.7" width="93" height="5.73"/><rect class="cls-15" x="758.55" y="776.11" width="93" height="11.98"/><rect class="cls-16" x="758.55" y="672.44" width="93" height="56.27"/><path id="Window" class="cls-17" d="M753.81,719.22h14.46V690.69s-6.35-13-14.46,0Z"/><path id="Window-2" data-name="Window" class="cls-17" d="M777.53,719.22H792V690.69s-6.35-13-14.46,0Z"/><path id="Window-3" data-name="Window" class="cls-17" d="M801.25,719.22h14.46V690.69s-6.35-13-14.46,0Z"/><path id="Window-4" data-name="Window" class="cls-17" d="M825,719.22h14.46V690.69s-6.35-13-14.46,0Z"/><path id="Window-5" data-name="Window" class="cls-17" d="M753.81,771.81h14.46V743.28s-6.35-13-14.46,0Z"/><path id="Window-6" data-name="Window" class="cls-17" d="M777.53,771.81H792V743.28s-6.35-13-14.46,0Z"/><path id="Window-7" data-name="Window" class="cls-17" d="M801.25,771.81h14.46V743.28s-6.35-13-14.46,0Z"/><path id="Window-8" data-name="Window" class="cls-17" d="M825,771.81h14.46V743.28s-6.35-13-14.46,0Z"/></g><g id="Building_2" data-name="Building 2"><rect class="cls-18" x="677.78" y="569.8" width="82.06" height="218.43"/><rect class="cls-19" x="677.78" y="569.8" width="82.06" height="51.58"/><rect class="cls-20" x="677.78" y="612.78" width="82.06" height="8.6"/><rect class="cls-20" x="750.66" y="565.37" width="9.18" height="56.01"/><rect class="cls-18" x="725.06" y="558.08" width="10.94" height="31.26"/><rect class="cls-18" x="714.9" y="553" width="7.42" height="32.43"/><g id="Windows"><path id="Window-9" data-name="Window" class="cls-17" d="M684.42,668.27h14.46V639.74s-6.35-13-14.46,0Z"/><path id="Window-10" data-name="Window" class="cls-17" d="M708.14,668.27H722.6V639.74s-6.35-13-14.46,0Z"/><path id="Window-11" data-name="Window" class="cls-17" d="M731.86,668.27h14.45V639.74s-6.35-13-14.45,0Z"/><path id="Window-12" data-name="Window" class="cls-17" d="M684.42,720.86h14.46V692.33s-6.35-13-14.46,0Z"/><path id="Window-13" data-name="Window" class="cls-17" d="M708.14,720.86H722.6V692.33s-6.35-13-14.46,0Z"/><path id="Window-14" data-name="Window" class="cls-17" d="M731.86,720.86h14.45V692.33s-6.35-13-14.45,0Z"/><path id="Window-15" data-name="Window" class="cls-17" d="M684.42,772.41h14.46V743.89s-6.35-13-14.46,0Z"/><path id="Window-16" data-name="Window" class="cls-17" d="M708.14,772.41H722.6V743.89s-6.35-13-14.46,0Z"/><path id="Window-17" data-name="Window" class="cls-17" d="M731.86,772.41h14.45V743.89s-6.35-13-14.45,0Z"/></g><rect class="cls-21" x="677.78" y="675.5" width="82.06" height="2.74"/><rect class="cls-21" x="677.78" y="727.05" width="82.06" height="2.74"/></g><g id="Building_1" data-name="Building 1"><rect class="cls-11" x="533.79" y="552.82" width="145.3" height="235.11"/><rect class="cls-22" x="533.79" y="551.79" width="145.3" height="42.71"/><rect class="cls-23" x="541.71" y="551.79" width="129.89" height="48.43"/><rect class="cls-24" x="633.29" y="529.93" width="8.81" height="60.76"/><rect class="cls-25" x="635.72" y="524.86" width="3.52" height="5.06"/><g id="Windows-2" data-name="Windows"><g id="Window-18" data-name="Window"><polygon class="cls-26" points="570.55 656.51 541.71 656.51 541.71 612.26 556.13 612.26 570.55 612.26 570.55 656.51"/><line class="cls-27" x1="556.13" y1="656.51" x2="556.13" y2="612.26"/><line class="cls-27" x1="541.71" y1="627.89" x2="570.55" y2="627.89"/><line class="cls-27" x1="541.71" y1="641.76" x2="570.55" y2="641.76"/></g><g id="Window_copy" data-name="Window copy"><polygon class="cls-26" points="620.51 656.51 591.67 656.51 591.67 612.26 606.09 612.26 620.51 612.26 620.51 656.51"/><line class="cls-27" x1="606.09" y1="656.51" x2="606.09" y2="612.26"/><line class="cls-27" x1="591.67" y1="627.89" x2="620.51" y2="627.89"/><line class="cls-27" x1="591.67" y1="641.76" x2="620.51" y2="641.76"/></g><g id="Window_copy_2" data-name="Window copy 2"><polygon class="cls-26" points="671.63 656.51 642.8 656.51 642.8 612.26 657.22 612.26 671.63 612.26 671.63 656.51"/><line class="cls-27" x1="657.22" y1="656.51" x2="657.22" y2="612.26"/><line class="cls-27" x1="642.8" y1="627.89" x2="671.64" y2="627.89"/><line class="cls-27" x1="642.8" y1="641.76" x2="671.64" y2="641.76"/></g><g id="Window_copy_5" data-name="Window copy 5"><polygon class="cls-26" points="570.55 712.28 541.71 712.28 541.71 668.03 556.13 668.03 570.55 668.03 570.55 712.28"/><line class="cls-27" x1="556.13" y1="712.28" x2="556.13" y2="668.03"/><line class="cls-27" x1="541.71" y1="683.66" x2="570.55" y2="683.66"/><line class="cls-27" x1="541.71" y1="697.53" x2="570.55" y2="697.53"/></g><g id="Window_copy_4" data-name="Window copy 4"><polygon class="cls-26" points="620.51 712.28 591.67 712.28 591.67 668.03 606.09 668.03 620.51 668.03 620.51 712.28"/><line class="cls-27" x1="606.09" y1="712.28" x2="606.09" y2="668.03"/><line class="cls-27" x1="591.67" y1="683.66" x2="620.51" y2="683.66"/><line class="cls-27" x1="591.67" y1="697.53" x2="620.51" y2="697.53"/></g><g id="Window_copy_3" data-name="Window copy 3"><polygon class="cls-26" points="671.63 712.28 642.8 712.28 642.8 668.03 657.22 668.03 671.63 668.03 671.63 712.28"/><line class="cls-27" x1="657.22" y1="712.28" x2="657.22" y2="668.03"/><line class="cls-27" x1="642.8" y1="683.66" x2="671.64" y2="683.66"/><line class="cls-27" x1="642.8" y1="697.53" x2="671.64" y2="697.53"/></g><g id="Window_copy_8" data-name="Window copy 8"><polygon class="cls-26" points="570.55 768.05 541.71 768.05 541.71 723.8 556.13 723.8 570.55 723.8 570.55 768.05"/><line class="cls-27" x1="556.13" y1="768.05" x2="556.13" y2="723.8"/><line class="cls-27" x1="541.71" y1="739.43" x2="570.55" y2="739.43"/><line class="cls-27" x1="541.71" y1="753.3" x2="570.55" y2="753.3"/></g><g id="Window_copy_7" data-name="Window copy 7"><polygon class="cls-26" points="620.51 768.05 591.67 768.05 591.67 723.8 606.09 723.8 620.51 723.8 620.51 768.05"/><line class="cls-27" x1="606.09" y1="768.05" x2="606.09" y2="723.8"/><line class="cls-27" x1="591.67" y1="739.43" x2="620.51" y2="739.43"/><line class="cls-27" x1="591.67" y1="753.3" x2="620.51" y2="753.3"/></g><g id="Window_copy_6" data-name="Window copy 6"><polygon class="cls-26" points="671.63 768.05 642.8 768.05 642.8 723.8 657.22 723.8 671.63 723.8 671.63 768.05"/><line class="cls-27" x1="657.22" y1="768.05" x2="657.22" y2="723.8"/><line class="cls-27" x1="642.8" y1="739.43" x2="671.64" y2="739.43"/><line class="cls-27" x1="642.8" y1="753.3" x2="671.64" y2="753.3"/></g></g></g><g id="Building_1_copy" data-name="Building 1 copy"><rect class="cls-28" x="385.3" y="552.82" width="145.3" height="235.11"/><rect class="cls-22" x="385.3" y="551.79" width="145.3" height="42.71"/><rect class="cls-23" x="393.23" y="551.79" width="129.89" height="48.43"/><rect class="cls-28" x="484.81" y="529.93" width="8.81" height="60.76"/><rect class="cls-25" x="487.23" y="524.86" width="3.52" height="5.06"/><g id="Windows_copy" data-name="Windows copy"><g id="Window_copy_9" data-name="Window copy 9"><polygon class="cls-26" points="422.07 656.51 393.23 656.51 393.23 612.26 407.65 612.26 422.07 612.26 422.07 656.51"/><line class="cls-27" x1="407.65" y1="656.51" x2="407.65" y2="612.26"/><line class="cls-27" x1="393.23" y1="627.89" x2="422.07" y2="627.89"/><line class="cls-27" x1="393.23" y1="641.76" x2="422.07" y2="641.76"/></g><g id="Window_copy_9-2" data-name="Window copy 9"><polygon class="cls-26" points="472.03 656.51 443.19 656.51 443.19 612.26 457.61 612.26 472.03 612.26 472.03 656.51"/><line class="cls-27" x1="457.61" y1="656.51" x2="457.61" y2="612.26"/><line class="cls-27" x1="443.19" y1="627.89" x2="472.03" y2="627.89"/><line class="cls-27" x1="443.19" y1="641.76" x2="472.03" y2="641.76"/></g><g id="Window_copy_9-3" data-name="Window copy 9"><polygon class="cls-26" points="523.15 656.51 494.31 656.51 494.31 612.26 508.73 612.26 523.15 612.26 523.15 656.51"/><line class="cls-27" x1="508.73" y1="656.51" x2="508.73" y2="612.26"/><line class="cls-27" x1="494.31" y1="627.89" x2="523.15" y2="627.89"/><line class="cls-27" x1="494.31" y1="641.76" x2="523.15" y2="641.76"/></g><g id="Window_copy_9-4" data-name="Window copy 9"><polygon class="cls-26" points="422.07 712.28 393.23 712.28 393.23 668.03 407.65 668.03 422.07 668.03 422.07 712.28"/><line class="cls-27" x1="407.65" y1="712.28" x2="407.65" y2="668.03"/><line class="cls-27" x1="393.23" y1="683.66" x2="422.07" y2="683.66"/><line class="cls-27" x1="393.23" y1="697.53" x2="422.07" y2="697.53"/></g><g id="Window_copy_9-5" data-name="Window copy 9"><polygon class="cls-26" points="472.03 712.28 443.19 712.28 443.19 668.03 457.61 668.03 472.03 668.03 472.03 712.28"/><line class="cls-27" x1="457.61" y1="712.28" x2="457.61" y2="668.03"/><line class="cls-27" x1="443.19" y1="683.66" x2="472.03" y2="683.66"/><line class="cls-27" x1="443.19" y1="697.53" x2="472.03" y2="697.53"/></g><g id="Window_copy_9-6" data-name="Window copy 9"><polygon class="cls-26" points="523.15 712.28 494.31 712.28 494.31 668.03 508.73 668.03 523.15 668.03 523.15 712.28"/><line class="cls-27" x1="508.73" y1="712.28" x2="508.73" y2="668.03"/><line class="cls-27" x1="494.31" y1="683.66" x2="523.15" y2="683.66"/><line class="cls-27" x1="494.31" y1="697.53" x2="523.15" y2="697.53"/></g><g id="Window_copy_9-7" data-name="Window copy 9"><polygon class="cls-26" points="422.07 768.05 393.23 768.05 393.23 723.8 407.65 723.8 422.07 723.8 422.07 768.05"/><line class="cls-27" x1="407.65" y1="768.05" x2="407.65" y2="723.8"/><line class="cls-27" x1="393.23" y1="739.43" x2="422.07" y2="739.43"/><line class="cls-27" x1="393.23" y1="753.3" x2="422.07" y2="753.3"/></g><g id="Window_copy_9-8" data-name="Window copy 9"><polygon class="cls-26" points="472.03 768.05 443.19 768.05 443.19 723.8 457.61 723.8 472.03 723.8 472.03 768.05"/><line class="cls-27" x1="457.61" y1="768.05" x2="457.61" y2="723.8"/><line class="cls-27" x1="443.19" y1="739.43" x2="472.03" y2="739.43"/><line class="cls-27" x1="443.19" y1="753.3" x2="472.03" y2="753.3"/></g><g id="Window_copy_9-9" data-name="Window copy 9"><polygon class="cls-26" points="523.15 768.05 494.31 768.05 494.31 723.8 508.73 723.8 523.15 723.8 523.15 768.05"/><line class="cls-27" x1="508.73" y1="768.05" x2="508.73" y2="723.8"/><line class="cls-27" x1="494.31" y1="739.43" x2="523.15" y2="739.43"/><line class="cls-27" x1="494.31" y1="753.3" x2="523.15" y2="753.3"/></g></g></g><g id="Building_3" data-name="Building 3"><rect class="cls-29" x="249" y="617.86" width="112.54" height="169.98"/><rect class="cls-30" x="262.54" y="582.04" width="38.03" height="24.49"/><rect class="cls-31" x="244.18" y="604.18" width="122.17" height="10.68"/><rect class="cls-32" x="246.13" y="613.56" width="116.7" height="4.95"/><rect class="cls-30" x="246.13" y="670.09" width="116.7" height="5.08"/><rect class="cls-30" x="246.13" y="724.01" width="116.7" height="4.82"/><rect class="cls-33" x="246.13" y="771.3" width="117.62" height="16.8"/><rect class="cls-34" x="321.16" y="782.37" width="29.7" height="6.25"/><rect class="cls-35" x="314.35" y="586.21" width="9.38" height="17.97"/><rect class="cls-35" x="327.54" y="595.2" width="11.62" height="8.99"/><g id="Windows-3" data-name="Windows"><path id="Window-19" data-name="Window" class="cls-17" d="M262.83,662.22h14.45V633.7s-6.35-13-14.45,0Z"/><path id="Window-20" data-name="Window" class="cls-17" d="M285.51,662.22H300V633.7s-6.35-13-14.46,0Z"/><path id="Window-21" data-name="Window" class="cls-17" d="M308.2,662.22h14.45V633.7s-6.35-13-14.45,0Z"/><path id="Window-22" data-name="Window" class="cls-17" d="M330.88,662.22h14.46V633.7s-6.35-13-14.46,0Z"/><path id="Window-23" data-name="Window" class="cls-17" d="M262.83,716.87h14.45V688.35s-6.35-13-14.45,0Z"/><path id="Window-24" data-name="Window" class="cls-17" d="M285.51,716.87H300V688.35s-6.35-13-14.46,0Z"/><path id="Window-25" data-name="Window" class="cls-17" d="M308.2,716.87h14.45V688.35s-6.35-13-14.45,0Z"/><path id="Window-26" data-name="Window" class="cls-17" d="M330.88,716.87h14.46V688.35s-6.35-13-14.46,0Z"/><rect class="cls-17" x="262.83" y="738.21" width="54.55" height="29.31"/><rect class="cls-36" x="324.41" y="745.25" width="23.45" height="37.12"/><rect class="cls-17" x="327.93" y="749.54" width="16.8" height="26.96"/></g><g id="Oning"><g id="Layer_33" data-name="Layer 33"><rect class="cls-37" x="255.44" y="731.76" width="6.75" height="24.03"/></g><g id="Layer_33_copy_2" data-name="Layer 33 copy 2"><rect class="cls-38" x="262.2" y="731.76" width="6.75" height="24.03"/></g><g id="Layer_33_copy" data-name="Layer 33 copy"><rect class="cls-37" x="268.95" y="731.76" width="6.75" height="24.03"/></g><g id="Layer_33_copy_3" data-name="Layer 33 copy 3"><rect class="cls-38" x="275.7" y="731.76" width="6.75" height="24.03"/></g><g id="Layer_33_copy_7" data-name="Layer 33 copy 7"><rect class="cls-37" x="282.45" y="731.76" width="6.75" height="24.03"/></g><g id="Layer_33_copy_6" data-name="Layer 33 copy 6"><rect class="cls-38" x="289.2" y="731.76" width="6.75" height="24.03"/></g><g id="Layer_33_copy_5" data-name="Layer 33 copy 5"><rect class="cls-37" x="295.95" y="731.76" width="6.75" height="24.03"/></g><g id="Layer_33_copy_4" data-name="Layer 33 copy 4"><rect class="cls-38" x="302.7" y="731.76" width="6.75" height="24.03"/></g><g id="Layer_33_copy_11" data-name="Layer 33 copy 11"><rect class="cls-37" x="309.46" y="731.76" width="6.75" height="24.03"/></g><g id="Layer_33_copy_10" data-name="Layer 33 copy 10"><rect class="cls-38" x="316.21" y="731.76" width="6.75" height="24.03"/></g><g id="Layer_33_copy_9" data-name="Layer 33 copy 9"><rect class="cls-37" x="322.96" y="731.76" width="6.75" height="24.03"/></g><g id="Layer_33_copy_8" data-name="Layer 33 copy 8"><rect class="cls-38" x="329.71" y="731.76" width="6.75" height="24.03"/></g><g id="Layer_33_copy_13" data-name="Layer 33 copy 13"><rect class="cls-37" x="336.46" y="731.76" width="6.75" height="24.03"/></g><g id="Layer_33_copy_12" data-name="Layer 33 copy 12"><rect class="cls-38" x="343.21" y="731.76" width="6.75" height="24.03"/></g><g id="Layer_33_copy_14" data-name="Layer 33 copy 14"><rect class="cls-37" x="349.96" y="731.76" width="6.75" height="24.03"/></g></g></g><g id="Srub"><path class="cls-39" d="M673.09,788.23h68.77s0-15.63-13.87-16.22a11.34,11.34,0,0,0-9.18,3.52s-5.28,2.93-8.21-2.15c0,0-9.76-13.09-25.2-2.74C685.4,770.64,674.85,777.87,673.09,788.23Z"/></g><g id="Tree"><path class="cls-40" d="M567.46,711.59a35.37,35.37,0,1,1-35.36-35.36h.74A35.36,35.36,0,0,1,567.46,711.59Z"/><path class="cls-41" d="M532.94,746.94v-70.7s31.67,0,34.4,33.5a34.92,34.92,0,0,1,0,4.34C566.94,722,561.67,745,532.94,746.94Z"/><rect class="cls-42" x="530.99" y="710.79" width="2.54" height="76.68"/><rect class="cls-42" x="536.12" y="712.07" width="2.64" height="15.42" transform="translate(623.63 -174.36) rotate(42.25)"/><rect class="cls-42" x="524.04" y="725.01" width="2.64" height="19.76" transform="translate(-365.77 586.73) rotate(-45)"/></g><g id="Building_5" data-name="Building 5"><rect class="cls-43" x="875.11" y="538.28" width="111.49" height="251.64"/><rect class="cls-44" x="875.11" y="675.3" width="111.49" height="114.62"/><rect class="cls-45" x="875.11" y="771.69" width="111.49" height="18.24"/><rect class="cls-46" x="875.11" y="519" width="110.91" height="51.84"/><rect class="cls-47" x="875.11" y="513.79" width="5.73" height="57.05"/><rect class="cls-47" x="980.87" y="513.79" width="5.73" height="57.05"/><rect class="cls-47" x="875.11" y="563.29" width="110.91" height="7.55"/><rect class="cls-44" x="892.82" y="503.89" width="8.08" height="28.92"/><rect class="cls-44" x="905.2" y="503.89" width="8.08" height="28.92"/><g id="Windows-4" data-name="Windows"><path id="Window-27" data-name="Window" class="cls-17" d="M885.6,617.62h14.45V589.1s-6.35-13-14.45,0Z"/><path id="Window-28" data-name="Window" class="cls-17" d="M910.34,617.62H924.8V589.1s-6.35-13-14.46,0Z"/><path id="Window-29" data-name="Window" class="cls-17" d="M935.09,617.62h14.46V589.1s-6.35-13-14.46,0Z"/><path id="Window-30" data-name="Window" class="cls-17" d="M959.84,617.62H974.3V589.1s-6.35-13-14.46,0Z"/><path id="Window-31" data-name="Window" class="cls-17" d="M885.6,666.09h14.45V637.56s-6.35-13-14.45,0Z"/><path id="Window-32" data-name="Window" class="cls-17" d="M910.34,666.09H924.8V637.56s-6.35-13-14.46,0Z"/><path id="Window-33" data-name="Window" class="cls-17" d="M935.09,666.09h14.46V637.56s-6.35-13-14.46,0Z"/><path id="Window-34" data-name="Window" class="cls-17" d="M959.84,666.09H974.3V637.56s-6.35-13-14.46,0Z"/><path id="Window-35" data-name="Window" class="cls-17" d="M885.6,720.74h14.45V692.21s-6.35-13-14.45,0Z"/><path id="Window-36" data-name="Window" class="cls-17" d="M910.34,720.74H924.8V692.21s-6.35-13-14.46,0Z"/><path id="Window-37" data-name="Window" class="cls-17" d="M935.09,720.74h14.46V692.21s-6.35-13-14.46,0Z"/><path id="Window-38" data-name="Window" class="cls-17" d="M959.84,720.74H974.3V692.21s-6.35-13-14.46,0Z"/><rect class="cls-17" x="886.51" y="746.22" width="25.59" height="19.15"/><rect class="cls-37" x="908" y="732.61" width="6.45" height="21.04"/><rect class="cls-48" x="901.81" y="732.61" width="6.45" height="21.04"/><rect class="cls-37" x="895.62" y="732.61" width="6.45" height="21.04"/><rect class="cls-48" x="889.44" y="732.61" width="6.45" height="21.04"/><rect class="cls-37" x="883.25" y="732.61" width="6.45" height="21.04"/><rect class="cls-17" x="949.41" y="746.22" width="25.59" height="19.15"/><rect class="cls-37" x="970.9" y="732.61" width="6.45" height="21.04"/><rect class="cls-48" x="964.71" y="732.61" width="6.45" height="21.04"/><rect class="cls-37" x="958.52" y="732.61" width="6.45" height="21.04"/><rect class="cls-48" x="952.34" y="732.61" width="6.45" height="21.04"/><rect class="cls-37" x="946.15" y="732.61" width="6.45" height="21.04"/></g><rect class="cls-49" x="914.45" y="780.8" width="31.71" height="9.12"/><rect class="cls-50" x="918.55" y="736.45" width="23.05" height="44.35"/><rect class="cls-17" x="921.28" y="740.56" width="17.58" height="37.12"/></g><g id="Building_4_copy" data-name="Building 4 copy"><rect class="cls-18" x="12.42" y="660.18" width="93" height="128.95" transform="translate(117.84 1449.31) rotate(-180)"/><rect class="cls-12" x="12.42" y="623.71" width="93" height="49.76" transform="translate(117.84 1297.18) rotate(-180)"/><rect class="cls-13" x="41.6" y="609.9" width="12.24" height="32.82" transform="translate(95.43 1252.63) rotate(-180)"/><rect class="cls-14" x="12.42" y="616.68" width="6.25" height="56.79" transform="translate(31.09 1290.14) rotate(-180)"/><rect class="cls-14" x="12.42" y="667.74" width="93" height="5.73" transform="translate(117.84 1341.2) rotate(-180)"/><rect class="cls-15" x="12.42" y="777.15" width="93" height="11.98" transform="translate(117.84 1566.27) rotate(-180)"/><rect class="cls-29" x="12.42" y="673.47" width="93" height="56.27" transform="translate(117.84 1403.2) rotate(-180)"/><path id="Window-39" data-name="Window" class="cls-17" d="M110.15,720.25H95.69V691.72s6.35-13,14.46,0Z"/><path id="Window-40" data-name="Window" class="cls-17" d="M86.43,720.25H72V691.72s6.35-13,14.45,0Z"/><path id="Window-41" data-name="Window" class="cls-17" d="M62.72,720.25H48.26V691.72s6.35-13,14.46,0Z"/><path id="Window-42" data-name="Window" class="cls-17" d="M39,720.25H24.54V691.72s6.35-13,14.46,0Z"/><path id="Window-43" data-name="Window" class="cls-17" d="M110.15,772.84H95.69V744.31s6.35-13,14.46,0Z"/><path id="Window-44" data-name="Window" class="cls-17" d="M86.43,772.84H72V744.31s6.35-13,14.45,0Z"/><path id="Window-45" data-name="Window" class="cls-17" d="M62.72,772.84H48.26V744.31s6.35-13,14.46,0Z"/><path id="Window-46" data-name="Window" class="cls-17" d="M39,772.84H24.54V744.31s6.35-13,14.46,0Z"/></g><g id="Building_5_copy" data-name="Building 5 copy"><rect class="cls-51" x="102.78" y="538.28" width="111.49" height="251.64"/><rect class="cls-11" x="102.78" y="675.3" width="111.49" height="114.62"/><rect class="cls-45" x="102.78" y="771.69" width="111.49" height="18.24"/><rect class="cls-46" x="102.78" y="519" width="110.91" height="51.84"/><rect class="cls-47" x="102.78" y="513.79" width="5.73" height="57.05"/><rect class="cls-47" x="208.54" y="513.79" width="5.73" height="57.05"/><rect class="cls-47" x="102.78" y="563.29" width="110.91" height="7.55"/><rect class="cls-11" x="120.49" y="503.89" width="8.08" height="28.92"/><rect class="cls-11" x="132.87" y="503.89" width="8.08" height="28.92"/><g id="Windows_copy_2" data-name="Windows copy 2"><path id="Window-47" data-name="Window" class="cls-17" d="M113.27,617.62h14.45V589.1s-6.35-13-14.45,0Z"/><path id="Window-48" data-name="Window" class="cls-17" d="M138,617.62h14.46V589.1s-6.35-13-14.46,0Z"/><path id="Window-49" data-name="Window" class="cls-17" d="M162.76,617.62h14.46V589.1s-6.35-13-14.46,0Z"/><path id="Window-50" data-name="Window" class="cls-17" d="M187.51,617.62H202V589.1s-6.35-13-14.46,0Z"/><path id="Window-51" data-name="Window" class="cls-17" d="M113.27,666.09h14.45V637.56s-6.35-13-14.45,0Z"/><path id="Window-52" data-name="Window" class="cls-17" d="M138,666.09h14.46V637.56s-6.35-13-14.46,0Z"/><path id="Window-53" data-name="Window" class="cls-17" d="M162.76,666.09h14.46V637.56s-6.35-13-14.46,0Z"/><path id="Window-54" data-name="Window" class="cls-17" d="M187.51,666.09H202V637.56s-6.35-13-14.46,0Z"/><path id="Window-55" data-name="Window" class="cls-17" d="M113.27,720.74h14.45V692.21s-6.35-13-14.45,0Z"/><path id="Window-56" data-name="Window" class="cls-17" d="M138,720.74h14.46V692.21s-6.35-13-14.46,0Z"/><path id="Window-57" data-name="Window" class="cls-17" d="M162.76,720.74h14.46V692.21s-6.35-13-14.46,0Z"/><path id="Window-58" data-name="Window" class="cls-17" d="M187.51,720.74H202V692.21s-6.35-13-14.46,0Z"/><rect class="cls-17" x="114.18" y="746.22" width="25.59" height="19.15"/><rect class="cls-37" x="135.67" y="732.61" width="6.45" height="21.04"/><rect class="cls-52" x="129.48" y="732.61" width="6.45" height="21.04"/><rect class="cls-37" x="123.3" y="732.61" width="6.45" height="21.04"/><rect class="cls-52" x="117.11" y="732.61" width="6.45" height="21.04"/><rect class="cls-37" x="110.92" y="732.61" width="6.45" height="21.04"/><rect class="cls-17" x="177.08" y="746.22" width="25.59" height="19.15"/><rect class="cls-37" x="198.57" y="732.61" width="6.45" height="21.04"/><rect class="cls-52" x="192.38" y="732.61" width="6.45" height="21.04"/><rect class="cls-37" x="186.2" y="732.61" width="6.45" height="21.04"/><rect class="cls-52" x="180.01" y="732.61" width="6.45" height="21.04"/><rect class="cls-37" x="173.82" y="732.61" width="6.45" height="21.04"/></g><rect class="cls-49" x="142.12" y="780.8" width="31.71" height="9.12"/><rect class="cls-50" x="146.22" y="736.45" width="23.05" height="44.35"/><rect class="cls-17" x="148.95" y="740.56" width="17.58" height="37.12"/></g><g id="Tree_copy" data-name="Tree copy"><path class="cls-40" d="M259.15,721.09a30.94,30.94,0,1,1-30.94-30.94h.65A30.94,30.94,0,0,1,259.15,721.09Z"/><path class="cls-41" d="M229,752V690.16s27.71,0,30.09,29.31a29.94,29.94,0,0,1,0,3.79C258.69,730.22,254.08,750.3,229,752Z"/><rect class="cls-42" x="227.24" y="720.39" width="2.22" height="67.09"/><rect class="cls-42" x="231.73" y="721.51" width="2.31" height="13.49" transform="translate(550.2 32.62) rotate(42.25)"/><rect class="cls-42" x="221.16" y="732.83" width="2.31" height="17.28" transform="translate(-459.18 374.37) rotate(-45)"/></g><g id="Srub_copy" data-name="Srub copy"><path class="cls-39" d="M901.69,788.23H832.92s0-15.63,13.87-16.22a11.33,11.33,0,0,1,9.18,3.52s5.28,2.93,8.21-2.15c0,0,9.77-13.09,25.2-2.74C889.38,770.64,899.93,777.87,901.69,788.23Z"/></g><g id="Bottom"><rect class="cls-53" x="-46.67" y="787.82" width="1103.87" height="13.07"/></g></svg>